<svg width="40" height="40" viewBox="0 0 40 40" fill="none" xmlns="http://www.w3.org/2000/svg">
<circle cx="19.8569" cy="19.7143" r="19.7143" fill="#C13584"/>
<path d="M19.8579 10.017C23.0162 10.017 23.3904 10.0291 24.6376 10.086C25.7909 10.1386 26.4172 10.3313 26.834 10.4933C27.3862 10.7078 27.7802 10.9642 28.1941 11.378C28.608 11.792 28.8643 12.186 29.0789 12.7381C29.2409 13.155 29.4336 13.7813 29.4862 14.9345C29.5431 16.1818 29.5552 16.5559 29.5552 19.7143C29.5552 22.8726 29.5431 23.2468 29.4862 24.494C29.4336 25.6473 29.2409 26.2736 29.0789 26.6904C28.8643 27.2425 28.608 27.6366 28.1941 28.0505C27.7802 28.4644 27.3862 28.7207 26.834 28.9353C26.4172 29.0973 25.7909 29.29 24.6376 29.3426C23.3905 29.3995 23.0165 29.4116 19.8579 29.4116C16.6993 29.4116 16.3252 29.3995 15.0781 29.3426C13.9248 29.29 13.2985 29.0973 12.8817 28.9353C12.3296 28.7207 11.9356 28.4644 11.5217 28.0505C11.1078 27.6366 10.8514 27.2425 10.6368 26.6904C10.4748 26.2736 10.2821 25.6473 10.2295 24.494C10.1726 23.2468 10.1606 22.8726 10.1606 19.7143C10.1606 16.5559 10.1726 16.1818 10.2295 14.9345C10.2821 13.7813 10.4748 13.155 10.6368 12.7381C10.8514 12.186 11.1077 11.792 11.5217 11.3781C11.9356 10.9642 12.3296 10.7078 12.8817 10.4933C13.2985 10.3313 13.9248 10.1386 15.0781 10.086C16.3254 10.0291 16.6995 10.017 19.8579 10.017ZM19.8579 7.88574C16.6454 7.88574 16.2426 7.89936 14.981 7.95692C13.722 8.01435 12.8621 8.21432 12.1097 8.5067C11.3319 8.80899 10.6722 9.21344 10.0146 9.87103C9.357 10.5287 8.95255 11.1883 8.65031 11.9661C8.35788 12.7185 8.1579 13.5784 8.10048 14.8374C8.04291 16.099 8.0293 16.5018 8.0293 19.7143C8.0293 22.9267 8.04291 23.3295 8.10048 24.5912C8.1579 25.8502 8.35788 26.71 8.65031 27.4624C8.95255 28.2403 9.357 28.8999 10.0146 29.5575C10.6722 30.2151 11.3319 30.6196 12.1097 30.9218C12.8621 31.2142 13.722 31.4142 14.981 31.4716C16.2426 31.5292 16.6454 31.5428 19.8579 31.5428C23.0703 31.5428 23.4731 31.5292 24.7348 31.4716C25.9938 31.4142 26.8537 31.2142 27.606 30.9218C28.3839 30.6196 29.0435 30.2151 29.7012 29.5575C30.3587 28.8999 30.7632 28.2403 31.0655 27.4624C31.3579 26.71 31.5578 25.8502 31.6153 24.5912C31.6728 23.3295 31.6865 22.9267 31.6865 19.7143C31.6865 16.5018 31.6728 16.099 31.6153 14.8374C31.5578 13.5784 31.3579 12.7185 31.0655 11.9661C30.7632 11.1883 30.3587 10.5287 29.7012 9.87103C29.0435 9.21344 28.3839 8.80899 27.606 8.5067C26.8537 8.21432 25.9938 8.01435 24.7348 7.95692C23.4731 7.89936 23.0703 7.88574 19.8579 7.88574Z" fill="white"/>
<path d="M19.8632 13.6455C16.5085 13.6455 13.7891 16.365 13.7891 19.7196C13.7891 23.0743 16.5085 25.7937 19.8632 25.7937C23.2179 25.7937 25.9373 23.0743 25.9373 19.7196C25.9373 16.365 23.2179 13.6455 19.8632 13.6455ZM19.8632 23.6625C17.6856 23.6625 15.9203 21.8972 15.9203 19.7196C15.9203 17.542 17.6856 15.7768 19.8632 15.7768C22.0408 15.7768 23.8061 17.542 23.8061 19.7196C23.8061 21.8972 22.0408 23.6625 19.8632 23.6625Z" fill="white"/>
<path d="M27.5947 13.4019C27.5947 14.1858 26.9592 14.8213 26.1753 14.8213C25.3914 14.8213 24.7559 14.1858 24.7559 13.4019C24.7559 12.6179 25.3914 11.9824 26.1753 11.9824C26.9592 11.9824 27.5947 12.6179 27.5947 13.4019Z" fill="white"/>
</svg>
