<svg width="40" height="40" viewBox="0 0 40 40" fill="none" xmlns="http://www.w3.org/2000/svg">
<circle cx="20.142" cy="19.7143" r="19.7143" fill="#0077B5"/>
<path fill-rule="evenodd" clip-rule="evenodd" d="M15.0483 10.137C15.0483 11.3643 14.1138 12.3575 12.6525 12.3575C11.248 12.3575 10.3135 11.3643 10.3424 10.137C10.3135 8.85005 11.248 7.88574 12.6805 7.88574C14.1138 7.88574 15.0203 8.85005 15.0483 10.137ZM10.4599 28.4074V14.1117H14.9028V28.4065H10.4599V28.4074Z" fill="white"/>
<path fill-rule="evenodd" clip-rule="evenodd" d="M18.4632 18.6732C18.4632 16.8901 18.4044 15.37 18.3457 14.1128H22.2048L22.4099 16.0713H22.4976C23.0823 15.1648 24.5437 13.792 26.9116 13.792C29.8343 13.792 32.0268 15.7215 32.0268 19.9294V28.4085H27.5839V20.4861C27.5839 18.6434 26.9414 17.3871 25.3336 17.3871C24.1054 17.3871 23.3751 18.2349 23.0832 19.0528C22.9657 19.3456 22.9079 19.7541 22.9079 20.1644V28.4085H18.465V18.6732H18.4632Z" fill="white"/>
</svg>
