<svg width="40" height="40" viewBox="0 0 40 40" fill="none" xmlns="http://www.w3.org/2000/svg">
<circle cx="20.0014" cy="19.7143" r="19.7143" fill="#1DA1F2"/>
<path fill-rule="evenodd" clip-rule="evenodd" d="M33.0009 13.5618C32.1312 13.9482 31.1952 14.2084 30.2135 14.3259C31.2157 13.725 31.9853 12.7741 32.3472 11.641C31.4105 12.1977 30.3704 12.6006 29.2657 12.819C28.3802 11.8759 27.1178 11.2861 25.7229 11.2861C23.0427 11.2861 20.8695 13.4593 20.8695 16.1395C20.8695 16.5195 20.9129 16.8901 20.9957 17.2458C16.9616 17.0439 13.3857 15.1112 10.9918 12.1748C10.5738 12.8916 10.3349 13.725 10.3349 14.6145C10.3349 16.298 11.1905 17.7835 12.4939 18.6541C11.6975 18.6288 10.95 18.4104 10.2947 18.0469V18.1076C10.2947 20.4598 11.9687 22.4208 14.1876 22.8679C13.7807 22.9783 13.3518 23.0382 12.9094 23.0382C12.5964 23.0382 12.292 23.0075 11.9955 22.9507C12.613 24.8786 14.406 26.2822 16.5295 26.3216C14.8689 27.6227 12.7762 28.3994 10.5021 28.3994C10.1094 28.3994 9.72303 28.3765 9.34375 28.3308C11.4917 29.7075 14.0425 30.5118 16.7834 30.5118C25.7103 30.5118 30.592 23.1163 30.592 16.7033C30.592 16.4927 30.588 16.283 30.5778 16.0756C31.5272 15.3896 32.3504 14.5348 33.0009 13.5618Z" fill="white"/>
</svg>
