<svg width="40" height="40" viewBox="0 0 40 40" fill="none" xmlns="http://www.w3.org/2000/svg">
<circle cx="19.7143" cy="19.7143" r="19.7143" fill="#4FEE6B"/>
<path fill-rule="evenodd" clip-rule="evenodd" d="M26.2049 21.6766C25.8772 21.5127 24.2659 20.72 23.9654 20.6107C23.665 20.5014 23.4466 20.4467 23.2281 20.7747C23.0096 21.1027 22.3815 21.8406 22.1903 22.0593C21.9992 22.2779 21.808 22.3054 21.4803 22.1413C21.1525 21.9774 20.0965 21.6313 18.8447 20.5151C17.8705 19.6465 17.2127 18.5735 17.0215 18.2455C16.8304 17.9175 17.0012 17.7402 17.1653 17.5768C17.3126 17.4301 17.493 17.1942 17.6568 17.0029C17.8207 16.8115 17.8753 16.6749 17.9846 16.4563C18.0938 16.2376 18.0392 16.0462 17.9572 15.8822C17.8753 15.7182 17.2199 14.1056 16.9468 13.4496C16.6808 12.8108 16.4106 12.8972 16.2094 12.8872C16.0184 12.8777 15.7998 12.8757 15.5813 12.8757C15.3628 12.8757 15.0078 12.9577 14.7073 13.2857C14.4069 13.6136 13.5603 14.4063 13.5603 16.0189C13.5603 17.6315 14.7346 19.1894 14.8985 19.4081C15.0624 19.6268 17.2095 22.9361 20.4971 24.3552C21.279 24.6928 21.8895 24.8943 22.3655 25.0454C23.1506 25.2947 23.865 25.2595 24.4297 25.1752C25.0594 25.0811 26.3688 24.3825 26.6419 23.6173C26.9149 22.852 26.9149 22.196 26.833 22.0593C26.7511 21.9227 26.5326 21.8406 26.2049 21.6766ZM20.2251 29.8393H20.2207C18.2645 29.8385 16.3458 29.3132 14.672 28.3202L14.2739 28.084L10.1478 29.1661L11.2492 25.1444L10.9899 24.7321C9.89864 22.9969 9.32229 20.9913 9.32311 18.9321C9.3255 12.9232 14.2161 8.03449 20.2295 8.03449C23.1413 8.03563 25.8785 9.17074 27.9368 11.2307C29.9951 13.2907 31.128 16.0289 31.1269 18.9409C31.1245 24.9503 26.2339 29.8393 20.2251 29.8393ZM29.5048 9.6654C27.0285 7.18694 23.7352 5.82136 20.2264 5.81998C12.9969 5.81998 7.1129 11.7017 7.11 18.9313C7.10906 21.2423 7.713 23.4982 8.86078 25.4865L7 32.2812L13.9532 30.458C15.869 31.5025 18.026 32.053 20.2212 32.0539H20.2266H20.2266C27.4555 32.0539 33.34 26.1714 33.343 18.9418C33.3443 15.4382 31.9813 12.1438 29.5048 9.6654Z" fill="white"/>
</svg>
